<mxfile host="Electron" modified="2023-11-08T13:13:59.367Z" agent="Mozilla/5.0 (Macintosh; Intel Mac OS X 10_15_7) AppleWebKit/537.36 (KHTML, like Gecko) draw.io/22.0.3 Chrome/114.0.5735.289 Electron/25.8.4 Safari/537.36" etag="M_CTrYxXz-EKmgMP5Ngx" version="22.0.3" type="device">
  <diagram name="Page-1" id="DM1nFHvT715gqmGRKCGj">
    <mxGraphModel dx="1964" dy="999" grid="1" gridSize="10" guides="1" tooltips="1" connect="1" arrows="1" fold="1" page="1" pageScale="1" pageWidth="850" pageHeight="1100" math="0" shadow="0">
      <root>
        <mxCell id="0" />
        <mxCell id="1" parent="0" />
        <mxCell id="CIOQlMlwts2HT0PMhpbJ-1" value="&lt;font style=&quot;font-size: 15px;&quot;&gt;Database Diagram - Karibak&lt;/font&gt;" style="rounded=0;whiteSpace=wrap;html=1;" vertex="1" parent="1">
          <mxGeometry width="850" height="30" as="geometry" />
        </mxCell>
        <mxCell id="CIOQlMlwts2HT0PMhpbJ-9" style="edgeStyle=orthogonalEdgeStyle;rounded=0;orthogonalLoop=1;jettySize=auto;html=1;exitX=0.5;exitY=1;exitDx=0;exitDy=0;entryX=0.5;entryY=0;entryDx=0;entryDy=0;" edge="1" parent="1" source="CIOQlMlwts2HT0PMhpbJ-3" target="CIOQlMlwts2HT0PMhpbJ-6">
          <mxGeometry relative="1" as="geometry" />
        </mxCell>
        <mxCell id="CIOQlMlwts2HT0PMhpbJ-3" value="&lt;font style=&quot;font-size: 15px;&quot;&gt;change_user_info(name, age, gender, address, device, ip, mac, last_activity)&lt;/font&gt;" style="shape=hexagon;perimeter=hexagonPerimeter2;whiteSpace=wrap;html=1;fixedSize=1;" vertex="1" parent="1">
          <mxGeometry x="10" y="220" width="300" height="40" as="geometry" />
        </mxCell>
        <mxCell id="CIOQlMlwts2HT0PMhpbJ-4" value="&lt;font style=&quot;font-size: 15px;&quot;&gt;add_user&lt;/font&gt;" style="shape=hexagon;perimeter=hexagonPerimeter2;whiteSpace=wrap;html=1;fixedSize=1;" vertex="1" parent="1">
          <mxGeometry x="630" y="220" width="110" height="40" as="geometry" />
        </mxCell>
        <mxCell id="CIOQlMlwts2HT0PMhpbJ-10" style="edgeStyle=orthogonalEdgeStyle;rounded=0;orthogonalLoop=1;jettySize=auto;html=1;exitX=1;exitY=0.5;exitDx=0;exitDy=0;entryX=0;entryY=0.5;entryDx=0;entryDy=0;" edge="1" parent="1" source="CIOQlMlwts2HT0PMhpbJ-6" target="CIOQlMlwts2HT0PMhpbJ-7">
          <mxGeometry relative="1" as="geometry" />
        </mxCell>
        <mxCell id="CIOQlMlwts2HT0PMhpbJ-11" style="edgeStyle=orthogonalEdgeStyle;rounded=0;orthogonalLoop=1;jettySize=auto;html=1;exitX=0;exitY=0.5;exitDx=0;exitDy=0;entryX=1;entryY=0.5;entryDx=0;entryDy=0;" edge="1" parent="1" source="CIOQlMlwts2HT0PMhpbJ-6" target="CIOQlMlwts2HT0PMhpbJ-8">
          <mxGeometry relative="1" as="geometry" />
        </mxCell>
        <mxCell id="CIOQlMlwts2HT0PMhpbJ-6" value="&lt;font style=&quot;font-size: 15px;&quot;&gt;Does name contain a string?&lt;/font&gt;" style="shape=process;whiteSpace=wrap;html=1;backgroundOutline=1;" vertex="1" parent="1">
          <mxGeometry x="100" y="340" width="120" height="60" as="geometry" />
        </mxCell>
        <mxCell id="CIOQlMlwts2HT0PMhpbJ-13" style="edgeStyle=orthogonalEdgeStyle;rounded=0;orthogonalLoop=1;jettySize=auto;html=1;exitX=0.5;exitY=1;exitDx=0;exitDy=0;entryX=0.5;entryY=0;entryDx=0;entryDy=0;" edge="1" parent="1" source="CIOQlMlwts2HT0PMhpbJ-7" target="CIOQlMlwts2HT0PMhpbJ-12">
          <mxGeometry relative="1" as="geometry" />
        </mxCell>
        <mxCell id="CIOQlMlwts2HT0PMhpbJ-7" value="&lt;font style=&quot;font-size: 15px;&quot;&gt;Yes&lt;/font&gt;" style="rhombus;whiteSpace=wrap;html=1;" vertex="1" parent="1">
          <mxGeometry x="280" y="330" width="80" height="80" as="geometry" />
        </mxCell>
        <mxCell id="CIOQlMlwts2HT0PMhpbJ-20" style="edgeStyle=orthogonalEdgeStyle;rounded=0;orthogonalLoop=1;jettySize=auto;html=1;exitX=0.5;exitY=1;exitDx=0;exitDy=0;entryX=0.5;entryY=0;entryDx=0;entryDy=0;" edge="1" parent="1" source="CIOQlMlwts2HT0PMhpbJ-8" target="CIOQlMlwts2HT0PMhpbJ-14">
          <mxGeometry relative="1" as="geometry">
            <Array as="points">
              <mxPoint y="510" />
              <mxPoint x="160" y="510" />
            </Array>
          </mxGeometry>
        </mxCell>
        <mxCell id="CIOQlMlwts2HT0PMhpbJ-8" value="&lt;font style=&quot;font-size: 15px;&quot;&gt;No&lt;/font&gt;" style="rhombus;whiteSpace=wrap;html=1;" vertex="1" parent="1">
          <mxGeometry x="-40" y="330" width="80" height="80" as="geometry" />
        </mxCell>
        <mxCell id="CIOQlMlwts2HT0PMhpbJ-16" style="edgeStyle=orthogonalEdgeStyle;rounded=0;orthogonalLoop=1;jettySize=auto;html=1;exitX=0.5;exitY=1;exitDx=0;exitDy=0;entryX=0.5;entryY=0;entryDx=0;entryDy=0;" edge="1" parent="1" source="CIOQlMlwts2HT0PMhpbJ-12" target="CIOQlMlwts2HT0PMhpbJ-14">
          <mxGeometry relative="1" as="geometry" />
        </mxCell>
        <mxCell id="CIOQlMlwts2HT0PMhpbJ-12" value="&lt;font style=&quot;font-size: 15px;&quot;&gt;UPDATE name&lt;/font&gt;" style="rounded=1;whiteSpace=wrap;html=1;" vertex="1" parent="1">
          <mxGeometry x="100" y="450" width="120" height="40" as="geometry" />
        </mxCell>
        <mxCell id="CIOQlMlwts2HT0PMhpbJ-21" style="edgeStyle=orthogonalEdgeStyle;rounded=0;orthogonalLoop=1;jettySize=auto;html=1;exitX=0;exitY=0.5;exitDx=0;exitDy=0;entryX=1;entryY=0.5;entryDx=0;entryDy=0;" edge="1" parent="1" source="CIOQlMlwts2HT0PMhpbJ-14" target="CIOQlMlwts2HT0PMhpbJ-18">
          <mxGeometry relative="1" as="geometry" />
        </mxCell>
        <mxCell id="CIOQlMlwts2HT0PMhpbJ-22" style="edgeStyle=orthogonalEdgeStyle;rounded=0;orthogonalLoop=1;jettySize=auto;html=1;exitX=1;exitY=0.5;exitDx=0;exitDy=0;entryX=0;entryY=0.5;entryDx=0;entryDy=0;" edge="1" parent="1" source="CIOQlMlwts2HT0PMhpbJ-14" target="CIOQlMlwts2HT0PMhpbJ-17">
          <mxGeometry relative="1" as="geometry" />
        </mxCell>
        <mxCell id="CIOQlMlwts2HT0PMhpbJ-14" value="&lt;font style=&quot;font-size: 15px;&quot;&gt;Does age contain a string?&lt;/font&gt;" style="shape=process;whiteSpace=wrap;html=1;backgroundOutline=1;" vertex="1" parent="1">
          <mxGeometry x="100" y="560" width="120" height="60" as="geometry" />
        </mxCell>
        <mxCell id="CIOQlMlwts2HT0PMhpbJ-35" style="edgeStyle=orthogonalEdgeStyle;rounded=0;orthogonalLoop=1;jettySize=auto;html=1;exitX=0.5;exitY=1;exitDx=0;exitDy=0;entryX=0.5;entryY=0;entryDx=0;entryDy=0;" edge="1" parent="1" source="CIOQlMlwts2HT0PMhpbJ-17" target="CIOQlMlwts2HT0PMhpbJ-19">
          <mxGeometry relative="1" as="geometry" />
        </mxCell>
        <mxCell id="CIOQlMlwts2HT0PMhpbJ-17" value="&lt;font style=&quot;font-size: 15px;&quot;&gt;Yes&lt;/font&gt;" style="rhombus;whiteSpace=wrap;html=1;" vertex="1" parent="1">
          <mxGeometry x="280" y="550" width="80" height="80" as="geometry" />
        </mxCell>
        <mxCell id="CIOQlMlwts2HT0PMhpbJ-37" style="edgeStyle=orthogonalEdgeStyle;rounded=0;orthogonalLoop=1;jettySize=auto;html=1;exitX=0.5;exitY=1;exitDx=0;exitDy=0;entryX=0.5;entryY=0;entryDx=0;entryDy=0;" edge="1" parent="1" source="CIOQlMlwts2HT0PMhpbJ-18" target="CIOQlMlwts2HT0PMhpbJ-30">
          <mxGeometry relative="1" as="geometry">
            <Array as="points">
              <mxPoint y="730" />
              <mxPoint x="160" y="730" />
            </Array>
          </mxGeometry>
        </mxCell>
        <mxCell id="CIOQlMlwts2HT0PMhpbJ-18" value="&lt;font style=&quot;font-size: 15px;&quot;&gt;No&lt;/font&gt;" style="rhombus;whiteSpace=wrap;html=1;" vertex="1" parent="1">
          <mxGeometry x="-40" y="550" width="80" height="80" as="geometry" />
        </mxCell>
        <mxCell id="CIOQlMlwts2HT0PMhpbJ-38" style="edgeStyle=orthogonalEdgeStyle;rounded=0;orthogonalLoop=1;jettySize=auto;html=1;exitX=0.5;exitY=1;exitDx=0;exitDy=0;entryX=0.5;entryY=0;entryDx=0;entryDy=0;" edge="1" parent="1" source="CIOQlMlwts2HT0PMhpbJ-19" target="CIOQlMlwts2HT0PMhpbJ-30">
          <mxGeometry relative="1" as="geometry" />
        </mxCell>
        <mxCell id="CIOQlMlwts2HT0PMhpbJ-19" value="&lt;font style=&quot;font-size: 15px;&quot;&gt;UPDATE age&lt;/font&gt;" style="rounded=1;whiteSpace=wrap;html=1;" vertex="1" parent="1">
          <mxGeometry x="100" y="670" width="120" height="40" as="geometry" />
        </mxCell>
        <mxCell id="CIOQlMlwts2HT0PMhpbJ-24" value="DB" style="shape=cylinder3;whiteSpace=wrap;html=1;boundedLbl=1;backgroundOutline=1;size=15;" vertex="1" parent="1">
          <mxGeometry x="425" y="430" width="60" height="80" as="geometry" />
        </mxCell>
        <mxCell id="CIOQlMlwts2HT0PMhpbJ-25" style="edgeStyle=orthogonalEdgeStyle;rounded=0;orthogonalLoop=1;jettySize=auto;html=1;exitX=1;exitY=0.5;exitDx=0;exitDy=0;entryX=0;entryY=0.5;entryDx=0;entryDy=0;entryPerimeter=0;" edge="1" parent="1" source="CIOQlMlwts2HT0PMhpbJ-12" target="CIOQlMlwts2HT0PMhpbJ-24">
          <mxGeometry relative="1" as="geometry" />
        </mxCell>
        <mxCell id="CIOQlMlwts2HT0PMhpbJ-26" style="edgeStyle=orthogonalEdgeStyle;rounded=0;orthogonalLoop=1;jettySize=auto;html=1;exitX=1;exitY=0.5;exitDx=0;exitDy=0;entryX=0.5;entryY=1;entryDx=0;entryDy=0;entryPerimeter=0;" edge="1" parent="1" source="CIOQlMlwts2HT0PMhpbJ-19" target="CIOQlMlwts2HT0PMhpbJ-24">
          <mxGeometry relative="1" as="geometry" />
        </mxCell>
        <mxCell id="CIOQlMlwts2HT0PMhpbJ-27" style="edgeStyle=orthogonalEdgeStyle;rounded=0;orthogonalLoop=1;jettySize=auto;html=1;exitX=0;exitY=0.5;exitDx=0;exitDy=0;entryX=1;entryY=0.5;entryDx=0;entryDy=0;" edge="1" parent="1" source="CIOQlMlwts2HT0PMhpbJ-30" target="CIOQlMlwts2HT0PMhpbJ-32">
          <mxGeometry relative="1" as="geometry" />
        </mxCell>
        <mxCell id="CIOQlMlwts2HT0PMhpbJ-28" style="edgeStyle=orthogonalEdgeStyle;rounded=0;orthogonalLoop=1;jettySize=auto;html=1;exitX=1;exitY=0.5;exitDx=0;exitDy=0;entryX=0;entryY=0.5;entryDx=0;entryDy=0;" edge="1" parent="1" source="CIOQlMlwts2HT0PMhpbJ-30" target="CIOQlMlwts2HT0PMhpbJ-31">
          <mxGeometry relative="1" as="geometry" />
        </mxCell>
        <mxCell id="CIOQlMlwts2HT0PMhpbJ-30" value="&lt;font style=&quot;font-size: 15px;&quot;&gt;Does gender contain a string?&lt;/font&gt;" style="shape=process;whiteSpace=wrap;html=1;backgroundOutline=1;" vertex="1" parent="1">
          <mxGeometry x="100" y="770" width="120" height="60" as="geometry" />
        </mxCell>
        <mxCell id="CIOQlMlwts2HT0PMhpbJ-36" style="edgeStyle=orthogonalEdgeStyle;rounded=0;orthogonalLoop=1;jettySize=auto;html=1;exitX=0.5;exitY=1;exitDx=0;exitDy=0;entryX=0.5;entryY=0;entryDx=0;entryDy=0;" edge="1" parent="1" source="CIOQlMlwts2HT0PMhpbJ-31" target="CIOQlMlwts2HT0PMhpbJ-33">
          <mxGeometry relative="1" as="geometry" />
        </mxCell>
        <mxCell id="CIOQlMlwts2HT0PMhpbJ-31" value="&lt;font style=&quot;font-size: 15px;&quot;&gt;Yes&lt;/font&gt;" style="rhombus;whiteSpace=wrap;html=1;" vertex="1" parent="1">
          <mxGeometry x="280" y="760" width="80" height="80" as="geometry" />
        </mxCell>
        <mxCell id="CIOQlMlwts2HT0PMhpbJ-49" style="edgeStyle=orthogonalEdgeStyle;rounded=0;orthogonalLoop=1;jettySize=auto;html=1;exitX=0.5;exitY=1;exitDx=0;exitDy=0;entryX=0.5;entryY=0;entryDx=0;entryDy=0;" edge="1" parent="1" source="CIOQlMlwts2HT0PMhpbJ-32" target="CIOQlMlwts2HT0PMhpbJ-43">
          <mxGeometry relative="1" as="geometry">
            <Array as="points">
              <mxPoint y="940" />
              <mxPoint x="160" y="940" />
            </Array>
          </mxGeometry>
        </mxCell>
        <mxCell id="CIOQlMlwts2HT0PMhpbJ-32" value="&lt;font style=&quot;font-size: 15px;&quot;&gt;No&lt;/font&gt;" style="rhombus;whiteSpace=wrap;html=1;" vertex="1" parent="1">
          <mxGeometry x="-40" y="760" width="80" height="80" as="geometry" />
        </mxCell>
        <mxCell id="CIOQlMlwts2HT0PMhpbJ-50" style="edgeStyle=orthogonalEdgeStyle;rounded=0;orthogonalLoop=1;jettySize=auto;html=1;exitX=0.5;exitY=1;exitDx=0;exitDy=0;entryX=0.5;entryY=0;entryDx=0;entryDy=0;" edge="1" parent="1" source="CIOQlMlwts2HT0PMhpbJ-33" target="CIOQlMlwts2HT0PMhpbJ-43">
          <mxGeometry relative="1" as="geometry" />
        </mxCell>
        <mxCell id="CIOQlMlwts2HT0PMhpbJ-33" value="&lt;font style=&quot;font-size: 15px;&quot;&gt;UPDATE gender&lt;/font&gt;" style="rounded=1;whiteSpace=wrap;html=1;" vertex="1" parent="1">
          <mxGeometry x="100" y="880" width="120" height="40" as="geometry" />
        </mxCell>
        <mxCell id="CIOQlMlwts2HT0PMhpbJ-34" style="edgeStyle=orthogonalEdgeStyle;rounded=0;orthogonalLoop=1;jettySize=auto;html=1;exitX=1;exitY=0.5;exitDx=0;exitDy=0;entryX=0.5;entryY=1;entryDx=0;entryDy=0;entryPerimeter=0;" edge="1" parent="1" source="CIOQlMlwts2HT0PMhpbJ-33" target="CIOQlMlwts2HT0PMhpbJ-24">
          <mxGeometry relative="1" as="geometry" />
        </mxCell>
        <mxCell id="CIOQlMlwts2HT0PMhpbJ-41" style="edgeStyle=orthogonalEdgeStyle;rounded=0;orthogonalLoop=1;jettySize=auto;html=1;exitX=0;exitY=0.5;exitDx=0;exitDy=0;entryX=1;entryY=0.5;entryDx=0;entryDy=0;" edge="1" parent="1" source="CIOQlMlwts2HT0PMhpbJ-43" target="CIOQlMlwts2HT0PMhpbJ-46">
          <mxGeometry relative="1" as="geometry" />
        </mxCell>
        <mxCell id="CIOQlMlwts2HT0PMhpbJ-42" style="edgeStyle=orthogonalEdgeStyle;rounded=0;orthogonalLoop=1;jettySize=auto;html=1;exitX=1;exitY=0.5;exitDx=0;exitDy=0;entryX=0;entryY=0.5;entryDx=0;entryDy=0;" edge="1" parent="1" source="CIOQlMlwts2HT0PMhpbJ-43" target="CIOQlMlwts2HT0PMhpbJ-45">
          <mxGeometry relative="1" as="geometry" />
        </mxCell>
        <mxCell id="CIOQlMlwts2HT0PMhpbJ-43" value="&lt;font style=&quot;font-size: 15px;&quot;&gt;Does address contain a string?&lt;/font&gt;" style="shape=process;whiteSpace=wrap;html=1;backgroundOutline=1;" vertex="1" parent="1">
          <mxGeometry x="100" y="980" width="120" height="60" as="geometry" />
        </mxCell>
        <mxCell id="CIOQlMlwts2HT0PMhpbJ-44" style="edgeStyle=orthogonalEdgeStyle;rounded=0;orthogonalLoop=1;jettySize=auto;html=1;exitX=0.5;exitY=1;exitDx=0;exitDy=0;entryX=0.5;entryY=0;entryDx=0;entryDy=0;" edge="1" parent="1" source="CIOQlMlwts2HT0PMhpbJ-45" target="CIOQlMlwts2HT0PMhpbJ-47">
          <mxGeometry relative="1" as="geometry" />
        </mxCell>
        <mxCell id="CIOQlMlwts2HT0PMhpbJ-45" value="&lt;font style=&quot;font-size: 15px;&quot;&gt;Yes&lt;/font&gt;" style="rhombus;whiteSpace=wrap;html=1;" vertex="1" parent="1">
          <mxGeometry x="280" y="970" width="80" height="80" as="geometry" />
        </mxCell>
        <mxCell id="CIOQlMlwts2HT0PMhpbJ-60" style="edgeStyle=orthogonalEdgeStyle;rounded=0;orthogonalLoop=1;jettySize=auto;html=1;exitX=0.5;exitY=1;exitDx=0;exitDy=0;" edge="1" parent="1" source="CIOQlMlwts2HT0PMhpbJ-46" target="CIOQlMlwts2HT0PMhpbJ-54">
          <mxGeometry relative="1" as="geometry">
            <Array as="points">
              <mxPoint y="1150" />
              <mxPoint x="160" y="1150" />
            </Array>
          </mxGeometry>
        </mxCell>
        <mxCell id="CIOQlMlwts2HT0PMhpbJ-46" value="&lt;font style=&quot;font-size: 15px;&quot;&gt;No&lt;/font&gt;" style="rhombus;whiteSpace=wrap;html=1;" vertex="1" parent="1">
          <mxGeometry x="-40" y="970" width="80" height="80" as="geometry" />
        </mxCell>
        <mxCell id="CIOQlMlwts2HT0PMhpbJ-59" style="edgeStyle=orthogonalEdgeStyle;rounded=0;orthogonalLoop=1;jettySize=auto;html=1;exitX=0.5;exitY=1;exitDx=0;exitDy=0;entryX=0.5;entryY=0;entryDx=0;entryDy=0;" edge="1" parent="1" source="CIOQlMlwts2HT0PMhpbJ-47" target="CIOQlMlwts2HT0PMhpbJ-54">
          <mxGeometry relative="1" as="geometry" />
        </mxCell>
        <mxCell id="CIOQlMlwts2HT0PMhpbJ-47" value="&lt;font style=&quot;font-size: 15px;&quot;&gt;UPDATE address&lt;/font&gt;" style="rounded=1;whiteSpace=wrap;html=1;" vertex="1" parent="1">
          <mxGeometry x="100" y="1090" width="120" height="40" as="geometry" />
        </mxCell>
        <mxCell id="CIOQlMlwts2HT0PMhpbJ-51" style="edgeStyle=orthogonalEdgeStyle;rounded=0;orthogonalLoop=1;jettySize=auto;html=1;exitX=1;exitY=0.5;exitDx=0;exitDy=0;entryX=0.5;entryY=1;entryDx=0;entryDy=0;entryPerimeter=0;" edge="1" parent="1" source="CIOQlMlwts2HT0PMhpbJ-47" target="CIOQlMlwts2HT0PMhpbJ-24">
          <mxGeometry relative="1" as="geometry" />
        </mxCell>
        <mxCell id="CIOQlMlwts2HT0PMhpbJ-52" style="edgeStyle=orthogonalEdgeStyle;rounded=0;orthogonalLoop=1;jettySize=auto;html=1;exitX=0;exitY=0.5;exitDx=0;exitDy=0;entryX=1;entryY=0.5;entryDx=0;entryDy=0;" edge="1" parent="1" source="CIOQlMlwts2HT0PMhpbJ-54" target="CIOQlMlwts2HT0PMhpbJ-57">
          <mxGeometry relative="1" as="geometry" />
        </mxCell>
        <mxCell id="CIOQlMlwts2HT0PMhpbJ-53" style="edgeStyle=orthogonalEdgeStyle;rounded=0;orthogonalLoop=1;jettySize=auto;html=1;exitX=1;exitY=0.5;exitDx=0;exitDy=0;entryX=0;entryY=0.5;entryDx=0;entryDy=0;" edge="1" parent="1" source="CIOQlMlwts2HT0PMhpbJ-54" target="CIOQlMlwts2HT0PMhpbJ-56">
          <mxGeometry relative="1" as="geometry" />
        </mxCell>
        <mxCell id="CIOQlMlwts2HT0PMhpbJ-54" value="&lt;font style=&quot;font-size: 15px;&quot;&gt;Does device contain a string?&lt;/font&gt;" style="shape=process;whiteSpace=wrap;html=1;backgroundOutline=1;" vertex="1" parent="1">
          <mxGeometry x="100" y="1190" width="120" height="60" as="geometry" />
        </mxCell>
        <mxCell id="CIOQlMlwts2HT0PMhpbJ-55" style="edgeStyle=orthogonalEdgeStyle;rounded=0;orthogonalLoop=1;jettySize=auto;html=1;exitX=0.5;exitY=1;exitDx=0;exitDy=0;entryX=0.5;entryY=0;entryDx=0;entryDy=0;" edge="1" parent="1" source="CIOQlMlwts2HT0PMhpbJ-56" target="CIOQlMlwts2HT0PMhpbJ-58">
          <mxGeometry relative="1" as="geometry" />
        </mxCell>
        <mxCell id="CIOQlMlwts2HT0PMhpbJ-56" value="&lt;font style=&quot;font-size: 15px;&quot;&gt;Yes&lt;/font&gt;" style="rhombus;whiteSpace=wrap;html=1;" vertex="1" parent="1">
          <mxGeometry x="280" y="1180" width="80" height="80" as="geometry" />
        </mxCell>
        <mxCell id="CIOQlMlwts2HT0PMhpbJ-70" style="edgeStyle=orthogonalEdgeStyle;rounded=0;orthogonalLoop=1;jettySize=auto;html=1;exitX=0.5;exitY=1;exitDx=0;exitDy=0;" edge="1" parent="1" source="CIOQlMlwts2HT0PMhpbJ-57" target="CIOQlMlwts2HT0PMhpbJ-65">
          <mxGeometry relative="1" as="geometry">
            <Array as="points">
              <mxPoint y="1360" />
              <mxPoint x="160" y="1360" />
            </Array>
          </mxGeometry>
        </mxCell>
        <mxCell id="CIOQlMlwts2HT0PMhpbJ-57" value="&lt;font style=&quot;font-size: 15px;&quot;&gt;No&lt;/font&gt;" style="rhombus;whiteSpace=wrap;html=1;" vertex="1" parent="1">
          <mxGeometry x="-40" y="1180" width="80" height="80" as="geometry" />
        </mxCell>
        <mxCell id="CIOQlMlwts2HT0PMhpbJ-71" style="edgeStyle=orthogonalEdgeStyle;rounded=0;orthogonalLoop=1;jettySize=auto;html=1;exitX=0.5;exitY=1;exitDx=0;exitDy=0;entryX=0.5;entryY=0;entryDx=0;entryDy=0;" edge="1" parent="1" source="CIOQlMlwts2HT0PMhpbJ-58" target="CIOQlMlwts2HT0PMhpbJ-65">
          <mxGeometry relative="1" as="geometry" />
        </mxCell>
        <mxCell id="CIOQlMlwts2HT0PMhpbJ-58" value="&lt;font style=&quot;font-size: 15px;&quot;&gt;UPDATE device&lt;/font&gt;" style="rounded=1;whiteSpace=wrap;html=1;" vertex="1" parent="1">
          <mxGeometry x="100" y="1300" width="120" height="40" as="geometry" />
        </mxCell>
        <mxCell id="CIOQlMlwts2HT0PMhpbJ-62" style="edgeStyle=orthogonalEdgeStyle;rounded=0;orthogonalLoop=1;jettySize=auto;html=1;exitX=1;exitY=0.5;exitDx=0;exitDy=0;entryX=0.5;entryY=1;entryDx=0;entryDy=0;entryPerimeter=0;" edge="1" parent="1" source="CIOQlMlwts2HT0PMhpbJ-58" target="CIOQlMlwts2HT0PMhpbJ-24">
          <mxGeometry relative="1" as="geometry" />
        </mxCell>
        <mxCell id="CIOQlMlwts2HT0PMhpbJ-63" style="edgeStyle=orthogonalEdgeStyle;rounded=0;orthogonalLoop=1;jettySize=auto;html=1;exitX=0;exitY=0.5;exitDx=0;exitDy=0;entryX=1;entryY=0.5;entryDx=0;entryDy=0;" edge="1" parent="1" source="CIOQlMlwts2HT0PMhpbJ-65" target="CIOQlMlwts2HT0PMhpbJ-68">
          <mxGeometry relative="1" as="geometry" />
        </mxCell>
        <mxCell id="CIOQlMlwts2HT0PMhpbJ-64" style="edgeStyle=orthogonalEdgeStyle;rounded=0;orthogonalLoop=1;jettySize=auto;html=1;exitX=1;exitY=0.5;exitDx=0;exitDy=0;entryX=0;entryY=0.5;entryDx=0;entryDy=0;" edge="1" parent="1" source="CIOQlMlwts2HT0PMhpbJ-65" target="CIOQlMlwts2HT0PMhpbJ-67">
          <mxGeometry relative="1" as="geometry" />
        </mxCell>
        <mxCell id="CIOQlMlwts2HT0PMhpbJ-65" value="&lt;font style=&quot;font-size: 15px;&quot;&gt;Does ip contain a string?&lt;/font&gt;" style="shape=process;whiteSpace=wrap;html=1;backgroundOutline=1;" vertex="1" parent="1">
          <mxGeometry x="100" y="1400" width="120" height="60" as="geometry" />
        </mxCell>
        <mxCell id="CIOQlMlwts2HT0PMhpbJ-66" style="edgeStyle=orthogonalEdgeStyle;rounded=0;orthogonalLoop=1;jettySize=auto;html=1;exitX=0.5;exitY=1;exitDx=0;exitDy=0;entryX=0.5;entryY=0;entryDx=0;entryDy=0;" edge="1" parent="1" source="CIOQlMlwts2HT0PMhpbJ-67" target="CIOQlMlwts2HT0PMhpbJ-69">
          <mxGeometry relative="1" as="geometry" />
        </mxCell>
        <mxCell id="CIOQlMlwts2HT0PMhpbJ-67" value="&lt;font style=&quot;font-size: 15px;&quot;&gt;Yes&lt;/font&gt;" style="rhombus;whiteSpace=wrap;html=1;" vertex="1" parent="1">
          <mxGeometry x="280" y="1390" width="80" height="80" as="geometry" />
        </mxCell>
        <mxCell id="CIOQlMlwts2HT0PMhpbJ-81" style="edgeStyle=orthogonalEdgeStyle;rounded=0;orthogonalLoop=1;jettySize=auto;html=1;exitX=0.5;exitY=1;exitDx=0;exitDy=0;entryX=0.5;entryY=0;entryDx=0;entryDy=0;" edge="1" parent="1" source="CIOQlMlwts2HT0PMhpbJ-68" target="CIOQlMlwts2HT0PMhpbJ-75">
          <mxGeometry relative="1" as="geometry">
            <Array as="points">
              <mxPoint y="1570" />
              <mxPoint x="160" y="1570" />
            </Array>
          </mxGeometry>
        </mxCell>
        <mxCell id="CIOQlMlwts2HT0PMhpbJ-68" value="&lt;font style=&quot;font-size: 15px;&quot;&gt;No&lt;/font&gt;" style="rhombus;whiteSpace=wrap;html=1;" vertex="1" parent="1">
          <mxGeometry x="-40" y="1390" width="80" height="80" as="geometry" />
        </mxCell>
        <mxCell id="CIOQlMlwts2HT0PMhpbJ-80" style="edgeStyle=orthogonalEdgeStyle;rounded=0;orthogonalLoop=1;jettySize=auto;html=1;exitX=0.5;exitY=1;exitDx=0;exitDy=0;entryX=0.5;entryY=0;entryDx=0;entryDy=0;" edge="1" parent="1" source="CIOQlMlwts2HT0PMhpbJ-69" target="CIOQlMlwts2HT0PMhpbJ-75">
          <mxGeometry relative="1" as="geometry" />
        </mxCell>
        <mxCell id="CIOQlMlwts2HT0PMhpbJ-69" value="&lt;font style=&quot;font-size: 15px;&quot;&gt;UPDATE ip&lt;/font&gt;" style="rounded=1;whiteSpace=wrap;html=1;" vertex="1" parent="1">
          <mxGeometry x="100" y="1510" width="120" height="40" as="geometry" />
        </mxCell>
        <mxCell id="CIOQlMlwts2HT0PMhpbJ-72" style="edgeStyle=orthogonalEdgeStyle;rounded=0;orthogonalLoop=1;jettySize=auto;html=1;exitX=1;exitY=0.5;exitDx=0;exitDy=0;entryX=0.5;entryY=1;entryDx=0;entryDy=0;entryPerimeter=0;" edge="1" parent="1" source="CIOQlMlwts2HT0PMhpbJ-69" target="CIOQlMlwts2HT0PMhpbJ-24">
          <mxGeometry relative="1" as="geometry" />
        </mxCell>
        <mxCell id="CIOQlMlwts2HT0PMhpbJ-73" style="edgeStyle=orthogonalEdgeStyle;rounded=0;orthogonalLoop=1;jettySize=auto;html=1;exitX=0;exitY=0.5;exitDx=0;exitDy=0;entryX=1;entryY=0.5;entryDx=0;entryDy=0;" edge="1" parent="1" source="CIOQlMlwts2HT0PMhpbJ-75" target="CIOQlMlwts2HT0PMhpbJ-78">
          <mxGeometry relative="1" as="geometry" />
        </mxCell>
        <mxCell id="CIOQlMlwts2HT0PMhpbJ-74" style="edgeStyle=orthogonalEdgeStyle;rounded=0;orthogonalLoop=1;jettySize=auto;html=1;exitX=1;exitY=0.5;exitDx=0;exitDy=0;entryX=0;entryY=0.5;entryDx=0;entryDy=0;" edge="1" parent="1" source="CIOQlMlwts2HT0PMhpbJ-75" target="CIOQlMlwts2HT0PMhpbJ-77">
          <mxGeometry relative="1" as="geometry" />
        </mxCell>
        <mxCell id="CIOQlMlwts2HT0PMhpbJ-75" value="&lt;font style=&quot;font-size: 15px;&quot;&gt;Does mac contain a string?&lt;/font&gt;" style="shape=process;whiteSpace=wrap;html=1;backgroundOutline=1;" vertex="1" parent="1">
          <mxGeometry x="100" y="1610" width="120" height="60" as="geometry" />
        </mxCell>
        <mxCell id="CIOQlMlwts2HT0PMhpbJ-76" style="edgeStyle=orthogonalEdgeStyle;rounded=0;orthogonalLoop=1;jettySize=auto;html=1;exitX=0.5;exitY=1;exitDx=0;exitDy=0;entryX=0.5;entryY=0;entryDx=0;entryDy=0;" edge="1" parent="1" source="CIOQlMlwts2HT0PMhpbJ-77" target="CIOQlMlwts2HT0PMhpbJ-79">
          <mxGeometry relative="1" as="geometry" />
        </mxCell>
        <mxCell id="CIOQlMlwts2HT0PMhpbJ-77" value="&lt;font style=&quot;font-size: 15px;&quot;&gt;Yes&lt;/font&gt;" style="rhombus;whiteSpace=wrap;html=1;" vertex="1" parent="1">
          <mxGeometry x="280" y="1600" width="80" height="80" as="geometry" />
        </mxCell>
        <mxCell id="CIOQlMlwts2HT0PMhpbJ-89" style="edgeStyle=orthogonalEdgeStyle;rounded=0;orthogonalLoop=1;jettySize=auto;html=1;exitX=0.5;exitY=1;exitDx=0;exitDy=0;" edge="1" parent="1" source="CIOQlMlwts2HT0PMhpbJ-78" target="CIOQlMlwts2HT0PMhpbJ-84">
          <mxGeometry relative="1" as="geometry">
            <Array as="points">
              <mxPoint y="1780" />
              <mxPoint x="160" y="1780" />
            </Array>
          </mxGeometry>
        </mxCell>
        <mxCell id="CIOQlMlwts2HT0PMhpbJ-78" value="&lt;font style=&quot;font-size: 15px;&quot;&gt;No&lt;/font&gt;" style="rhombus;whiteSpace=wrap;html=1;" vertex="1" parent="1">
          <mxGeometry x="-40" y="1600" width="80" height="80" as="geometry" />
        </mxCell>
        <mxCell id="CIOQlMlwts2HT0PMhpbJ-90" style="edgeStyle=orthogonalEdgeStyle;rounded=0;orthogonalLoop=1;jettySize=auto;html=1;exitX=0.5;exitY=1;exitDx=0;exitDy=0;entryX=0.5;entryY=0;entryDx=0;entryDy=0;" edge="1" parent="1" source="CIOQlMlwts2HT0PMhpbJ-79" target="CIOQlMlwts2HT0PMhpbJ-84">
          <mxGeometry relative="1" as="geometry" />
        </mxCell>
        <mxCell id="CIOQlMlwts2HT0PMhpbJ-91" style="edgeStyle=orthogonalEdgeStyle;rounded=0;orthogonalLoop=1;jettySize=auto;html=1;exitX=1;exitY=0.5;exitDx=0;exitDy=0;" edge="1" parent="1" source="CIOQlMlwts2HT0PMhpbJ-79" target="CIOQlMlwts2HT0PMhpbJ-24">
          <mxGeometry relative="1" as="geometry" />
        </mxCell>
        <mxCell id="CIOQlMlwts2HT0PMhpbJ-79" value="&lt;font style=&quot;font-size: 15px;&quot;&gt;UPDATE mac&lt;/font&gt;" style="rounded=1;whiteSpace=wrap;html=1;" vertex="1" parent="1">
          <mxGeometry x="100" y="1720" width="120" height="40" as="geometry" />
        </mxCell>
        <mxCell id="CIOQlMlwts2HT0PMhpbJ-82" style="edgeStyle=orthogonalEdgeStyle;rounded=0;orthogonalLoop=1;jettySize=auto;html=1;exitX=0;exitY=0.5;exitDx=0;exitDy=0;entryX=1;entryY=0.5;entryDx=0;entryDy=0;" edge="1" parent="1" source="CIOQlMlwts2HT0PMhpbJ-84" target="CIOQlMlwts2HT0PMhpbJ-87">
          <mxGeometry relative="1" as="geometry" />
        </mxCell>
        <mxCell id="CIOQlMlwts2HT0PMhpbJ-83" style="edgeStyle=orthogonalEdgeStyle;rounded=0;orthogonalLoop=1;jettySize=auto;html=1;exitX=1;exitY=0.5;exitDx=0;exitDy=0;entryX=0;entryY=0.5;entryDx=0;entryDy=0;" edge="1" parent="1" source="CIOQlMlwts2HT0PMhpbJ-84" target="CIOQlMlwts2HT0PMhpbJ-86">
          <mxGeometry relative="1" as="geometry" />
        </mxCell>
        <mxCell id="CIOQlMlwts2HT0PMhpbJ-84" value="&lt;font style=&quot;font-size: 15px;&quot;&gt;Does last_activity contain a string?&lt;/font&gt;" style="shape=process;whiteSpace=wrap;html=1;backgroundOutline=1;" vertex="1" parent="1">
          <mxGeometry x="80" y="1820" width="160" height="60" as="geometry" />
        </mxCell>
        <mxCell id="CIOQlMlwts2HT0PMhpbJ-85" style="edgeStyle=orthogonalEdgeStyle;rounded=0;orthogonalLoop=1;jettySize=auto;html=1;exitX=0.5;exitY=1;exitDx=0;exitDy=0;entryX=0.5;entryY=0;entryDx=0;entryDy=0;" edge="1" parent="1" source="CIOQlMlwts2HT0PMhpbJ-86" target="CIOQlMlwts2HT0PMhpbJ-88">
          <mxGeometry relative="1" as="geometry" />
        </mxCell>
        <mxCell id="CIOQlMlwts2HT0PMhpbJ-86" value="&lt;font style=&quot;font-size: 15px;&quot;&gt;Yes&lt;/font&gt;" style="rhombus;whiteSpace=wrap;html=1;" vertex="1" parent="1">
          <mxGeometry x="280" y="1810" width="80" height="80" as="geometry" />
        </mxCell>
        <mxCell id="CIOQlMlwts2HT0PMhpbJ-87" value="&lt;font style=&quot;font-size: 15px;&quot;&gt;No&lt;/font&gt;" style="rhombus;whiteSpace=wrap;html=1;" vertex="1" parent="1">
          <mxGeometry x="-40" y="1810" width="80" height="80" as="geometry" />
        </mxCell>
        <mxCell id="CIOQlMlwts2HT0PMhpbJ-88" value="&lt;font style=&quot;font-size: 15px;&quot;&gt;UPDATE last_activity&lt;/font&gt;" style="rounded=1;whiteSpace=wrap;html=1;" vertex="1" parent="1">
          <mxGeometry x="100" y="1930" width="120" height="40" as="geometry" />
        </mxCell>
        <mxCell id="CIOQlMlwts2HT0PMhpbJ-92" style="edgeStyle=orthogonalEdgeStyle;rounded=0;orthogonalLoop=1;jettySize=auto;html=1;exitX=1;exitY=0.5;exitDx=0;exitDy=0;entryX=0.5;entryY=1;entryDx=0;entryDy=0;entryPerimeter=0;" edge="1" parent="1" source="CIOQlMlwts2HT0PMhpbJ-88" target="CIOQlMlwts2HT0PMhpbJ-24">
          <mxGeometry relative="1" as="geometry" />
        </mxCell>
      </root>
    </mxGraphModel>
  </diagram>
</mxfile>
